<?xml version="1.0" encoding="UTF-8" standalone="no"?>
<!DOCTYPE svg PUBLIC "-//W3C//DTD SVG 1.1//EN" "http://www.w3.org/Graphics/SVG/1.1/DTD/svg11.dtd">
<svg xmlns="http://www.w3.org/2000/svg" xmlns:xlink="http://www.w3.org/1999/xlink" version="1.1" width="24pt" height="24pt" viewBox="0 0 24 24">
<g enable-background="new">
<g>
<clipPath id="cp0">
<path transform="matrix(.25,0,0,.25,0,0)" d="M 0 0 L 96 0 L 96 96 L 0 96 Z " fill-rule="evenodd"/>
</clipPath>
<g clip-path="url(#cp0)">
<g>
<clipPath id="cp1">
<path transform="matrix(.25,0,0,.25,0,0)" d="M 0 0 L 96 0 L 96 96 L 0 96 Z " fill-rule="evenodd"/>
</clipPath>
<g clip-path="url(#cp1)">
<path d="M 2.53 19.65 L 3.87 20.21 L 3.87 11.179999 L 1.4399998 17.039999 C 1.0299999 18.06 1.5199999 19.23 2.5299998 19.65 L 2.53 19.65 Z M 22.03 15.95 L 17.07 3.98 C 16.76 3.23 16.029999 2.77 15.26 2.75 C 15 2.75 14.7300009 2.79 14.47 2.9 L 7.1 5.95 C 6.35 6.2599999 5.89 6.9799997 5.87 7.75 C 5.8599998 8.02 5.91 8.29 6.02 8.55 L 10.98 20.52 C 11.29 21.28 12.03 21.74 12.809999 21.75 C 13.07 21.75 13.33 21.7 13.58 21.6 L 20.94 18.550002 C 21.960001 18.130002 22.45 16.960001 22.03 15.950001 L 22.03 15.95 Z M 12.830001 19.75 L 7.87 7.79 L 15.219999 4.75 L 15.23 4.75 L 20.18 16.7 L 12.83 19.75 L 12.830001 19.75 Z " fill="#2d9aa6"/>
<path transform="matrix(1,0,0,1,10,8)" d="M 1 0 C 1.2761424 0 1.5118446 .09763107 1.7071067 .2928932 C 1.9023688 .48815535 1.9999999 .7238576 2 1 C 1.9999999 1.2761424 1.9023688 1.5118446 1.7071067 1.7071067 C 1.5118446 1.9023688 1.2761424 1.9999999 1 2 C .7238576 1.9999999 .48815535 1.9023688 .2928932 1.7071067 C .09763107 1.5118446 0 1.2761424 0 1 C 0 .7238576 .09763107 .48815535 .2928932 .2928932 C .48815535 .09763107 .7238576 0 1 0 Z " fill="#2d9aa6"/>
<path d="M 5.88 19.75 C 5.88 20.85 6.78 21.75 7.88 21.75 L 9.33 21.75 L 5.88 13.41 L 5.88 19.75 Z " fill="#2d9aa6"/>
</g>
</g>
</g>
</g>
</g>
</svg>
