<svg xmlns="http://www.w3.org/2000/svg" xmlns:xlink="http://www.w3.org/1999/xlink" width="24" height="24" viewBox="0 0 24 24"><defs><style>.a,.d{fill:#f7f6ee;}.a{stroke:#707070;}.b{clip-path:url(#a);}.c{fill:none;}</style><clipPath id="a"><rect class="a" width="24" height="24" transform="translate(30 583)"/></clipPath></defs><g class="b" transform="translate(-30 -583)"><g transform="translate(30 583)"><path class="c" d="M0,0H24V24H0Z"/><path class="d" d="M21.41,11.58l-9-9A1.987,1.987,0,0,0,11,2H4A2.006,2.006,0,0,0,2,4v7a2,2,0,0,0,.59,1.42l9,9A1.987,1.987,0,0,0,13,22a1.955,1.955,0,0,0,1.41-.59l7-7A1.955,1.955,0,0,0,22,13,2.02,2.02,0,0,0,21.41,11.58ZM13,20.01,4,11V4h7V3.99l9,9Z"/><circle class="d" cx="1.5" cy="1.5" r="1.5" transform="translate(5 5)"/></g></g></svg>