<svg xmlns="http://www.w3.org/2000/svg" xmlns:xlink="http://www.w3.org/1999/xlink" width="24" height="24" viewBox="0 0 24 24"><defs><style>.a,.d{fill:#a7e4f2;}.a{stroke:#707070;}.b{clip-path:url(#a);}.c{fill:none;}</style><clipPath id="a"><rect class="a" width="24" height="24" transform="translate(30 589)"/></clipPath></defs><g class="b" transform="translate(-30 -589)"><g transform="translate(30 589)"><path class="c" d="M0,0H24V24H0Z"/><path class="d" d="M12,9h4a1,1,0,0,0,0-2H12a1,1,0,0,0,0,2Zm0,4h4a1,1,0,0,0,0-2H12a1,1,0,0,0,0,2Zm0,4h4a1,1,0,0,0,0-2H12a1,1,0,0,0,0,2ZM7,7H9V9H7Zm0,4H9v2H7Zm0,4H9v2H7ZM20,3H4A1,1,0,0,0,3,4V20a1,1,0,0,0,1,1H20a1,1,0,0,0,1-1V4A1,1,0,0,0,20,3ZM19,19H5V5H19Z"/></g></g></svg>