<?xml version="1.0" encoding="iso-8859-1"?>
<!-- Generator: Adobe Illustrator 24.0.1, SVG Export Plug-In . SVG Version: 6.00 Build 0)  -->
<svg version="1.1" id="Camada_1" xmlns="http://www.w3.org/2000/svg" xmlns:xlink="http://www.w3.org/1999/xlink" x="0px" y="0px"
	 viewBox="0 0 374 374" style="enable-background:new 0 0 374 374;" xml:space="preserve">
<g>
	<path style="fill:#F1A850;" d="M124.4,234.2c-13-19.9-25.9-39.9-38.9-59.8c-9.5-14.7-19-29.5-28.5-44.3c-4.7-7.3-4.1-12.9,1.9-16.8
		c7.2-4.8,14.2-3.5,19,3.8c13,20,25.9,40.1,38.9,60.2c7.4,11.4,14.7,22.8,22,34.2l0,0c2.9-4.8,4.4-7.2,5.2-8.5
		c0.2-0.3,1.2-1.7,2-3.4v0.1c0,0,0.1-0.1,0.2-0.3c0.1-0.2,0.2-0.3,0.4-0.6c0.1-0.2,0.1-0.2,0.3-0.5c0.6-1,0.6-1,0.6-1.1l0.1-0.2
		c0.2-0.4,0.2-0.4,0.2-0.4c0-0.1,0.1-0.1,0.1-0.2c0,0,0,0,0.1-0.1c0,0,0,0,0-0.1l0,0l0,0l0,0l0,0l0,0l-0.1-0.1c0,0,0,0-0.1-0.2
		c-0.2-0.3-0.3-0.4-0.4-0.5c0-0.1-0.1-0.2-0.2-0.3c0-0.1-0.1-0.1-0.1-0.2c0,0,0-0.1-0.1-0.1c-0.1-0.1-0.1-0.2-0.5-0.8
		c-0.5-0.9-0.9-1.5-1-1.5c-1.1-1.7-30-46.6-54.2-83.7C80.8,92.5,61.6,89.9,47,102.6c-10.3,8.9-11.8,22.8-3.7,35.5
		c15.1,23.6,30.4,47.1,45.6,70.6c10.3,16,20.7,32,31.1,47.9l0,0C119.2,248.7,119.9,241.1,124.4,234.2z"/>
	<path style="fill:#EFAA54;" d="M236.7,97.3c-0.1-0.1-0.3-0.1-0.4-0.2C236.5,97.2,236.6,97.3,236.7,97.3z"/>
	<path style="fill:#F1A850;" d="M201.4,111.6c-0.9,1.4-1.8,2.7-2.7,4.1l0,0C199.6,114.4,200.5,113,201.4,111.6z"/>
	<path style="fill:#F1A850;" d="M178.2,148.3c-0.9,1.4-1.8,2.7-2.7,4.1l0,0C176.5,151,177.4,149.7,178.2,148.3z"/>
	<path style="fill:#F1A850;" d="M169.3,162.5c-0.9,1.4-1.8,2.7-2.7,4.1"/>
	<path style="fill:#F1A850;" d="M164,170.7c-0.9,1.4-1.8,2.7-2.7,4.1l0,0l0.9-1.4C162.3,173.3,164,170.8,164,170.7z"/>
	<path style="fill:#F1A850;" d="M160.3,176.7c-0.9,1.4-1.8,2.7-2.7,4.1l0,0C158.5,179.4,159.4,178.1,160.3,176.7z"/>
	<path style="fill:#A6E3F1;" d="M332.2,231.5c-15.7-23.3-28.7-42.9-38.6-58.1c-17.9-27.2-26.7-40.9-28.2-43.5
		c-1-1.6-6.1-10.4-11.5-18.1c0,0-3.5-5.1-7.8-9.2c-0.8-0.8-1.6-1.5-1.6-1.5c-0.6-0.5-1.1-0.9-1.5-1.1c-0.2-0.1-0.4-0.3-0.6-0.4
		c-0.4-0.3-0.8-0.6-1.2-0.8c-0.3-0.2-0.7-0.4-1-0.6c-0.4-0.3-0.8-0.5-1.2-0.6c-0.7-0.3-1.3-0.6-1.9-0.8c0,0-0.6-0.2-1.2-0.4
		c-3.4-1.1-6.6-1.4-6.6-1.4c-1.8-0.2-4.9-0.5-8.7,0.3c-1.4,0.3-3.4,0.7-5.7,2c-1.3,0.7-2.2,1.5-3.2,2.3c-1.2,1-2.8,2.4-4.4,4.3l0,0
		c-3.8,4.7-5.3,6.7-6,7.8c0,0-0.3,0.5-1.6,2.5c0,0-1,1.6-1.1,1.6l0,0c-2.1,3.4-4.2,6.8-6.3,10.2l0,0c-0.3,0.5-0.6,0.9-0.9,1.4
		c-0.6,0.9-1.1,1.7-1.7,2.6l0,0l0,0c-0.4,0.6-0.7,1.3-1.1,1.9c-0.3,0.5-0.7,1.1-1,1.6s-0.7,1-1,1.6c-0.7,1.1-1.4,2.1-2.1,3.2l0,0
		c-0.4,0.6-0.7,1.2-1.1,1.9l0,0c-0.4,0.6-0.8,1.3-1.2,1.9c-0.3,0.4-0.5,0.8-0.8,1.3c-0.3,0.4-0.9,1.4-1.2,1.8
		c-0.2,0.3-0.8,1.2-0.9,1.4l0,0c-0.4,0.6-0.8,1.2-1.2,1.8c-3.9,6.1-7.8,12.2-11.5,18.3l0,0c-0.8,1.4-1.7,2.8-2.5,4.2
		c-0.1,0.1-1.7,2.7-1.8,2.8c0,0-0.8,1.3-0.9,1.3l0,0l0,0c-0.4,0.6-0.7,1.3-1.1,1.9c-0.1,0.1-1.6,2.5-1.7,2.6c0,0-0.9,1.4-1,1.5l0,0
		c-0.8,1.4-1.7,2.8-2.5,4.2c-2.1,3.4-4.1,6.8-6.2,10.1l0,0c-1.7,2.7-3.3,5.4-5,8.1c-1.7,2.8-3.4,5.5-5,8.3l0,0l0,0
		c-4.6,7.7-9.3,15.3-14.4,22.7c-4.5,6.9-5.3,14.5-4.4,22.4l0,0l0,0c0.2,0.4,0.5,0.9,0.6,1.3c4.5,11.3,13,17.8,24.9,19.3
		c2.3,0.3,7.2,0.7,12.7-1.3c0.2-0.1,0.5-0.2,0.9-0.3c2.9-1.2,5.9-3.1,9.5-6.8c0.3-0.3,0.4-0.5,0.6-0.7c2.1-2.3,4.7-5.6,7.2-9.9
		c3.8-5.9,7-10.9,9.4-14.7c0,0,5.8-9.2,13.9-22.4c2-3.2,3.1-5.1,3.1-5.1c2-3.4,2.8-4.7,5.6-9.1c8.1-13.1,14.9-23.7,19.5-30.7
		c2.2,3.3,8.6,13.3,10.8,16.6c15.7,24.1,31.3,48.2,46.9,72.4c1.3,2.1,4.8,7.1,11.3,10c6.7,3,12.7,2.3,15.9,1.8
		c7.2-1.2,13.2-4,17.7-8.8c1.1-1.1,4.6-5.2,6.3-11.5C340.3,244.2,333.6,233.6,332.2,231.5z M317,258.6c-6.8,4.7-14.1,3.9-18.3-2.6
		c-20.6-31.8-41.1-63.7-61.6-95.6c4.8-7.5,9.6-15,14.4-22.5c-4.9,0.9-20.8,4-25.7,10.9c-1.4,1.9-7.9,12.6-8.6,13.8l0,0
		c-0.6,1-1.1,1.8-1.4,2.1c0,0-0.4,0.6-1.2,1.9c-2.1,3.4-4.2,6.8-6.3,10.2l0,0c-0.9,1.7-1.8,2.9-2.1,3.3c-1.3,2-1.2,1.9-3.8,5.8
		c-0.8,1.1-1.2,1.9-2.1,3.1c-0.2,0.3-0.7,1.1-1.5,2.4c-1.1,1.8-1.6,2.6-2.2,3.6c-2.9,4.6-3.9,6.2-6.3,10.1l0,0l0,0
		c-0.9,1.4-1.8,2.7-2.7,4.1c-0.8,1.4-1.7,2.8-2.5,4.1l0,0c-0.9,1.4-1.8,2.7-2.7,4.1c-0.4,0.6-0.7,1.3-1.1,1.9l0,0
		c-0.9,1.4-1.8,2.7-2.7,4.1c-0.8,1.4-1.7,2.8-2.5,4.2l0,0c-0.9,1.4-1.8,2.7-2.7,4c-0.9,1.4-1.7,2.8-2.6,4.2l0,0
		c-0.9,1.3-1.8,2.7-2.7,4c-2.1,3.4-4.2,6.8-6.3,10.2l0,0c-0.9,1.3-1.8,2.7-2.7,4c-0.8,1.2-0.8,1.2-1.5,2.1c-0.7,1-1,1.5-1.2,1.6
		c-1.5,1.8-4.8,2.6-5,2.6c-1.2,0.2-2.2,0.2-3.6,0.1c-1.2-0.1-2.1-0.2-2.5-0.3c-1.2-0.2-1.9-0.5-2.2-0.6c-0.7-0.2-1.1-0.5-1.3-0.5
		c-0.5-0.3-0.9-0.5-1.2-0.7c-0.1-0.1-0.4-0.3-0.6-0.5c-0.4-0.4-0.7-0.7-1.3-1.4c-0.5-0.5-0.8-0.9-1.1-1.2c-0.1-0.2-0.3-0.4-0.4-0.6
		c-0.3-0.6-0.7-1.1-1-1.7c-1.9-3.6-0.5-6.7,1.4-9.8c12.8-20.3,25.7-40.6,38.5-60.9c13.1-20.7,26.7-41.1,39.1-62.3
		c2.6-4.4,9.2-8.9,15.4-7.9c5.3,0.9,8.7,5.9,10.2,8.5c3.5,5.8,7,11.5,10.5,17.3c11.5,17.7,23,35.4,34.5,53.2
		c11.1,17.1,22.2,34.2,33.2,51.4C323.6,249.3,322.8,254.6,317,258.6z"/>
	<path style="fill:#F1A850;" d="M241.2,121.3c0.1,1.3-0.1,2.3-0.3,2.9s-0.4,1.1-0.7,1.6c-0.4,0.9-0.8,1.5-0.9,1.7
		c-2.3,4.1-3.6,6-3.6,6c-1.8,2.7-5.3,8.1-10,15.2l0,0c0,0,0.8-1,1.6-1.1c0.4-0.1,1,0.2,1.8,1.2c0.9,1.2,1.7,2.4,2.6,3.6
		c1.9,2.7,3.6,5.3,5.3,7.9l0,0c4.8-7.5,9.6-15,14.4-22.5C248,132.4,244.6,126.8,241.2,121.3z"/>
	<path style="fill:#F1A850;" d="M176,227.6L176,227.6c-0.9,1.4-1.8,2.7-2.7,4.1l0.9-1.4C174.3,230.2,175.9,227.7,176,227.6z"/>
	<path style="fill:#F1A850;" d="M170.8,235.8L170.8,235.8c-0.9,1.4-1.8,2.7-2.7,4l0.8-1.3C169.1,238.4,170.7,236,170.8,235.8z"/>
	<path style="fill:#F1A850;" d="M161.8,250.1L161.8,250.1c-0.9,1.3-1.8,2.7-2.7,4l0.9-1.3C160.1,252.6,161.7,250.2,161.8,250.1z"/>
	<path style="fill:#F1A850;" d="M217.1,162.6L217.1,162.6c-0.9,1.3-1.8,2.7-2.6,4C215.4,165.2,216.3,163.9,217.1,162.6z"/>
	<line style="fill:none;" x1="208.2" y1="176.8" x2="208.2" y2="176.8"/>
	<path style="fill:#F1A850;" d="M202.9,185L202.9,185c-0.9,1.4-1.8,2.7-2.7,4.1c0,0,0.9-1.3,0.9-1.4
		C201.3,187.5,202.8,185.1,202.9,185z"/>
	<path style="fill:#F1A850;" d="M199.2,191L199.2,191c-0.9,1.3-1.8,2.7-2.7,4c0,0,0.8-1.3,0.9-1.3
		C197.5,193.6,199.1,191.1,199.2,191z"/>
	<path style="fill:#F1A850;" d="M187.5,209.2c0,0,0.5-0.8,0.9-1.4c0.9-1.4,1.8-2.7,1.8-2.7L187.5,209.2z"/>
	<path style="fill:#F1A850;" d="M185,213.4L185,213.4c-0.9,1.4-1.8,2.7-2.7,4.1c0,0,1-1.5,1-1.6C183.4,215.8,184.9,213.5,185,213.4z
		"/>
	<path style="fill:#F1A850;" d="M178.5,223.4c0,0,0.8-1.3,0.9-1.3c0-0.1,1.8-2.7,1.8-2.8C180.3,220.7,179.4,222.1,178.5,223.4z"/>
	<path style="fill:#A6E3F1;" d="M162.6,173.6"/>
	<path style="fill:#A6E3F1;" d="M182.8,141.3"/>
	<path style="fill:#A6E3F1;" d="M191.1,128.2"/>
	<path style="fill:#F1A850;" d="M382.6,154.1"/>
	<path style="fill:#F1A850;" d="M376.4,129.3"/>
	<path style="fill:#F1A850;" d="M-124.4,113.9"/>
	<path style="fill:#A6E3F1;" d="M539.9,218.4"/>
	<path style="fill:#E8A34E;" d="M245.1,101.3"/>
	<path style="fill:#A6E3F1;" d="M214,99.2"/>
	<path style="fill:#E8A34E;" d="M215,97.3"/>
	<path style="fill:#F1A850;" d="M376.6,143.2"/>
	<path style="fill:#A6E3F1;" d="M436.6,216.7"/>
	<path style="fill:#A6E3F1;" d="M408.3,241.1"/>
	<path style="fill:#A6E3F1;" d="M406.1,251.9"/>
	<path style="fill:#A6E3F1;" d="M413.4,258.3"/>
	<path style="fill:#A6E3F1;" d="M221.2,255.6"/>
	<path style="fill:#A6E3F1;" d="M379.5,276"/>
</g>
<path style="fill:#A6E3F1;" d="M153.8,259"/>
<path style="fill:#D99E53;" d="M138.1,256"/>
<path style="fill:#101D25;" d="M138.4,257.3"/>
<path style="fill:#E9A34E;" d="M137.5,255.4"/>
<path style="fill:#101D25;" d="M161.3,252.9"/>
<path style="fill:#A6E3F1;" d="M158.2,256.3"/>
<path style="fill:#F1A850;" d="M199.3,188.5"/>
<path style="fill:#101D25;" d="M207.3,178.8"/>
<path style="fill:#101D25;" d="M149.5,196"/>
<path style="fill:#F1A850;" d="M148.1,196.2"/>
<path style="fill:#F1A850;" d="M256.5,162"/>
<path style="fill:#F1A850;" d="M253.3,162.4"/>
</svg>
