<?xml version="1.0" encoding="iso-8859-1"?>
<!-- Generator: Adobe Illustrator 24.0.1, SVG Export Plug-In . SVG Version: 6.00 Build 0)  -->
<svg version="1.1" id="Camada_1" xmlns="http://www.w3.org/2000/svg" xmlns:xlink="http://www.w3.org/1999/xlink" x="0px" y="0px"
	 viewBox="0 0 373.316 370.148" style="enable-background:new 0 0 373.316 370.148;" xml:space="preserve">
<g>
	<path style="fill:#F2A950;" d="M155.17,177.124c0.393-2.207,1.334-3.788,1.915-4.622c-0.129-0.196-3.273-4.998-3.401-5.193
		c-0.974-1.487-8.535-13.029-9.509-14.515c-3.005-4.593-6.011-9.185-9.016-13.778c-2.854-4.076-5.035-7.52-6.601-10.112
		c-0.736-1.218-1.877-3.1-1.255-4.939c0.521-1.541,2.048-2.383,2.591-2.682c0.617-0.34,2.027-1.117,3.837-0.743
		c1.93,0.399,2.972,1.829,3.214,2.182c1.253,1.891,2.505,3.781,3.758,5.672c2.598,3.983,5.197,7.965,7.795,11.948
		c1.585,2.438,10.385,15.968,11.97,18.405c0.088,0.136,2.661,4.089,2.748,4.224c0.737-1.123,1.475-2.251,2.212-3.384
		c0.721-1.107,1.437-2.211,2.149-3.314c-4.246-5.853-7.548-10.713-9.785-14.078c-6.713-10.103-9.945-15.23-11.164-17.093
		c-1.409-2.153-2.83-4.298-4.277-6.425c-3.51-5.159-10.932-6.4-16.223-3.061c-5.765,3.638-7.668,9.759-4.114,15.301
		c10.984,17.129,22.208,34.107,33.339,51.143C155.104,181.08,154.782,179.299,155.17,177.124z"/>
	<path style="fill:#F0C793;" d="M216.835,238.332c0.001-2.251,0.001-4.501,0.002-6.752c-2.277-0.002-4.554-0.004-6.831-0.006
		c-0.855-0.001-1.71-0.002-2.564-0.003c-0.001,0.583-0.002,1.166-0.003,1.748c0.001,0.669,0.002,1.338,0.003,2.007
		c0.784,0,1.569,0,2.353,0.001c0.926,0,1.851,0,2.777-0.001c0,0.31,0.001,0.619,0.001,0.929c-0.252,0.638-0.768,1.688-1.804,2.611
		c-2.714,2.419-6.345,1.607-6.602,1.544c-2.132-0.514-3.435-1.857-3.821-2.28c-3.158-3.459-3.04-9.564,0.249-12.844
		c1.832-1.827,4.911-2.353,7.309-1.715c1.49,0.397,2.632,1.256,2.801,1.385c1.083,0.829,1.719,1.752,2.057,2.331
		c0.696-0.69,1.392-1.379,2.087-2.069c0.374-0.371,0.747-0.741,1.121-1.112c-0.42-0.645-1.089-1.529-2.096-2.367
		c-3.757-3.124-10.295-3.993-15.186-0.878c-5.813,3.703-7.244,11.755-4.052,17.739c3.23,6.055,11.893,7.368,16.217,4.865
		c0.506-0.293,0.911-0.614,1.228-0.905c0,0.755,0,1.51,0,2.265c0.392,0,0.784,0,1.176,0c0.869,0.003,1.741,0.004,2.616,0.003
		c0.326-0.001,0.651-0.002,0.978-0.003c-0.001-0.706-0.005-2.47-0.007-3.19C216.842,240.791,216.835,239.02,216.835,238.332z"/>
	<path style="fill:#F0C793;" d="M299.706,234.42c-1.349-2.629-4.155-3.331-4.609-3.436c-0.416-0.124-4.649-1.392-7.189-2.485
		c-0.458-0.197-1.236-0.548-1.615-1.332c-0.324-0.671-0.235-1.304-0.199-1.539c0.036-0.233,0.124-0.764,0.526-1.253
		c0.579-0.706,1.45-0.886,2.035-1.007c0.196-0.041,0.348-0.059,0.521-0.08c0.717-0.087,1.311-0.07,1.715-0.039
		c1.044,0,2.639,0.144,4.366,0.913c0.734,0.327,1.347,0.703,1.844,1.06c0.356-0.623,0.712-1.245,1.069-1.868
		c0.289-0.521,0.579-1.042,0.868-1.563c-0.469-0.403-1.189-0.962-2.151-1.484c-3.428-1.858-6.787-1.538-8.016-1.404
		c-1.129,0.123-2.515,0.287-4.086,1.138c-1.21,0.655-2.042,1.453-2.552,2.024c-0.578,0.895-1.631,2.83-1.453,5.296
		c0.045,0.627,0.129,1.639,0.745,2.73c1.151,2.041,3.242,2.723,3.847,2.897c2.233,0.73,4.467,1.459,6.7,2.189
		c1.277,0.183,2.317,0.921,2.646,1.9c0.242,0.723,0.071,1.459,0.071,1.459c-0.006,0.024-0.14,0.581-0.499,1.04
		c-0.952,1.22-2.918,1.039-3.041,1.026c-0.142,0.008-0.359,0.018-0.624,0.019c0,0-0.855,0.003-1.765-0.121
		c-1.961-0.267-3.449-0.856-4.825-1.41c-0.863-0.348-1.555-0.672-2.01-0.895c-0.271,0.584-0.547,1.171-0.825,1.76
		c-0.343,0.725-0.687,1.444-1.032,2.156c0.641,0.305,1.283,0.609,1.924,0.914c3.36,1.492,6.268,1.944,8.164,2.09
		c2.341,0.18,4.444,0.313,6.445-0.938c1.505-0.941,2.36-2.294,2.499-2.519c0.307-0.496,0.847-1.445,1.045-2.748
		C300.344,238.257,300.696,236.35,299.706,234.42z"/>
	<path style="fill:#F0C793;" d="M126.607,218.903c-0.338,0.001-1.752,0.004-2.09,0.005c-0.473,0.001-2.036,0.004-2.509,0.005
		c-0.227,0.594-0.454,1.188-0.68,1.782c-3.038,7.959-6.076,15.918-9.114,23.877c1.729,0.001,3.459,0.002,5.188,0.002
		c0.396-1.046,0.793-2.093,1.189-3.139c0.401-1.146,0.802-2.292,1.202-3.437c3.01,0.002,6.021,0.004,9.031,0.007
		c0.368,1.057,0.75,2.126,1.147,3.207c0.416,1.132,0.835,2.245,1.258,3.337c1.652-0.001,3.304-0.002,4.956-0.003
		c-2.773-7.793-5.683-15.623-8.738-23.486C127.168,220.339,126.888,219.62,126.607,218.903z M120.636,234.58l3.704-9.826l3.53,9.836
		L120.636,234.58z"/>
	<path style="fill:#F0C793;" d="M92.648,218.926c-4.542-0.003-5.547,0.032-8.921,0.021c-5.696-0.029-6.676-0.025-8.548-0.032
		c-0.952-0.003-1.734-0.008-2.25-0.011c0.007,1.118,0.01,2.242,0.007,3.374c-0.001,0.51-0.004,1.019-0.007,1.527
		c1.357,0.008,2.728,0.009,4.115,0c1.423-0.009,2.83-0.027,4.222-0.053c0,1.213-0.002,2.427-0.005,3.643
		c-0.012,5.026-0.046,10.029-0.102,15.008c0,0.87,0,1.74,0,2.61c0.876-0.003,1.753-0.006,2.629-0.01
		c0.816,0.003,1.631,0.006,2.447,0.01c0-0.852,0-1.704,0-2.557c0.002-3.33,0.008-8.509,0.013-11.839
		c0.002-1.328,0.009-5.595,0.012-6.923c2.138,0.002,4.277,0.004,6.415,0.005c0.695,0,1.389,0,2.084,0
		c-0.004-0.842-0.008-1.684-0.012-2.526c0.004-0.747,0.008-1.495,0.012-2.242C94.318,218.928,93.572,218.926,92.648,218.926z"/>
	<path style="fill:#F0C793;" d="M172.479,240.475c-2.98,0.015-5.96,0.03-8.94,0.044c-0.728-0.004-1.456-0.007-2.184-0.011
		c-0.001-0.706-0.001-1.411-0.002-2.117c0.01-2.828,0.017-5.66,0.022-8.496c0.005-2.959,0.008-5.914,0.008-8.865
		c0.001-0.703,0.002-1.406,0.002-2.109c-0.878,0-1.757,0.001-2.635,0.002c-0.852,0-1.703-0.001-2.555-0.002
		c0,0.71-0.001,1.421-0.001,2.131c0.015,7.256,0.017,14.521,0.007,21.794c0,0.313-0.003,1.797-0.003,2.11
		c0.728,0.002,1.457,0.003,2.185,0.005c4.719-0.002,9.438-0.004,14.156-0.006c0.752,0.001,1.503,0.001,2.255,0.002
		c0.001-0.694,0.003-1.389,0.004-2.083c-0.001-0.802-0.003-1.605-0.004-2.407C174.023,240.47,173.251,240.473,172.479,240.475z"/>
	<path style="fill:#F0C793;" d="M260.23,238.713c0.001-2.251,0.001-4.501,0.002-6.752c-2.277-0.002-4.554-0.004-6.831-0.006
		c-0.855-0.001-1.71-0.002-2.564-0.003c-0.001,0.583-0.002,1.166-0.003,1.748c0.001,0.669,0.002,1.338,0.003,2.007
		c0.784,0,1.569,0.001,2.353,0.001c0.926,0,1.851,0,2.777-0.001c0,0.31,0.001,0.62,0.001,0.929
		c-0.252,0.638-0.768,1.688-1.804,2.611c-2.714,2.419-6.345,1.607-6.602,1.544c-2.132-0.514-3.435-1.857-3.821-2.28
		c-3.158-3.459-3.04-9.564,0.25-12.844c1.832-1.827,4.911-2.353,7.309-1.715c1.49,0.397,2.632,1.256,2.801,1.385
		c1.083,0.829,1.719,1.752,2.057,2.331c0.696-0.69,1.392-1.38,2.087-2.069c0.374-0.37,0.747-0.741,1.121-1.112
		c-0.42-0.645-1.089-1.53-2.096-2.367c-3.757-3.124-10.295-3.993-15.186-0.878c-5.813,3.703-7.244,11.755-4.052,17.739
		c3.23,6.055,11.893,7.368,16.217,4.865c0.506-0.293,0.911-0.614,1.228-0.905c0,0.755,0,1.51,0,2.265c0.392,0,0.784,0,1.176,0
		c0.869,0.003,1.741,0.004,2.616,0.003c0.325-0.001,0.651-0.002,0.978-0.003c-0.001-0.706-0.005-2.47-0.007-3.19
		C260.237,241.172,260.23,239.402,260.23,238.713z"/>
	<path style="fill:#A6E3F1;" d="M245.909,172.662c-11.328-17.496-22.815-34.893-34.019-52.468c-0.016-0.025-0.04-0.063-0.072-0.112
		c-0.609-0.942-2.491-3.768-6.016-5.334c-0.779-0.346-1.955-0.771-3.487-0.974c-0.481-0.066-1.139-0.133-1.924-0.139
		c-0.61-0.005-1.334-0.007-2.244,0.159c-0.238,0.043-1.121,0.213-2.204,0.676c-0.76,0.324-1.888,0.907-3.058,1.946
		c-0.804,1.222-1.608,2.444-2.412,3.666c-18.623,29.576-26.117,41.307-27.648,43.498c-0.138,0.197-0.975,1.387-2.062,3.03
		c-0.843,1.274-1.723,2.656-2.919,4.591c-0.385,0.622-0.72,1.183-1.141,1.89c-0.453,0.76-2.55,4.461-1.348,8.969
		c0.903,3.387,3.157,5.31,3.937,5.955c1.953,1.615,4.427,2.554,7.345,2.834c5.268,0.505,8.894-2.229,11.61-6.533
		c6.91-10.949,13.903-21.847,20.875-32.758c0.679-1.063,1.449-2.069,2.31-3.291c0.869,1.29,1.499,2.199,2.102,3.124
		c7.142,10.953,14.299,21.896,21.409,32.869c2.32,3.581,5.193,6.321,9.715,6.608c5.161,0.328,9.273-1.781,11.954-6.06
		C249.161,180.745,248.459,176.599,245.909,172.662z M200.632,136.241c-9.483,15.021-18.966,30.043-28.449,45.064
		c-0.136,0.213-0.338,0.513-0.608,0.853c-0.619,0.782-1.446,1.825-2.565,2.278c-1.828,0.741-3.79-0.358-4.382-0.689
		c-0.538-0.301-1.848-1.059-2.58-2.666c-0.915-2.01-0.266-3.9-0.092-4.381c0.279-0.772,0.641-1.276,0.748-1.431
		c3.797-5.475,7.208-11.21,10.992-16.695c0.9-1.305,2.289-3.34,3.964-5.893c8.989-13.525,15.547-23.454,18.543-28.485
		c0.667-1.12,2.523-4.204,4.923-4.243c1.559-0.025,2.955,1.407,3.644,2.086c1.261,1.243,1.876,2.585,2.174,3.398
		C204.278,130.04,202.16,133.821,200.632,136.241z M238.809,183.275c-2.873,1.794-5.69,1.247-7.683-1.786
		c-6.842-10.412-13.606-20.875-20.375-31.335c-1.873-2.895-3.661-5.844-5.488-8.768c0.941-1.581,1.883-3.162,2.824-4.743
		c0.497-0.815,1.002-1.636,1.516-2.461c0.505-0.81,1.01-1.611,1.515-2.402c9.742,14.847,19.518,29.673,29.199,44.559
		C242.221,179.268,241.574,181.549,238.809,183.275z"/>
	<path style="fill:#F2A950;" d="M201.253,135.98c0.304,0.006,0.58,0.181,0.715,0.452c1.116,1.647,2.232,3.294,3.348,4.942
		c1.952-3.202,3.903-6.404,5.855-9.606c-0.702-1.072-1.406-2.166-2.109-3.284c-0.875-1.389-1.717-2.764-2.529-4.121
		c0.081,0.213,0.163,0.425,0.244,0.638c0.036,0.257,0.013,0.461-0.013,0.596c-0.052,0.263-0.156,0.466-0.278,0.702
		c-0.051,0.1-0.099,0.182-0.194,0.345c-0.135,0.233-0.241,0.401-0.259,0.43c-0.373,0.597-1.381,2.363-1.381,2.363
		c-3.254,5.249-4.202,6.908-4.128,6.955C200.564,136.417,200.839,135.971,201.253,135.98z"/>
</g>
</svg>
