<?xml version="1.0" encoding="iso-8859-1"?>
<!-- Generator: Adobe Illustrator 24.0.1, SVG Export Plug-In . SVG Version: 6.00 Build 0)  -->
<svg version="1.1" id="Camada_1" xmlns="http://www.w3.org/2000/svg" xmlns:xlink="http://www.w3.org/1999/xlink" x="0px" y="0px"
	 viewBox="0 0 374 374" style="enable-background:new 0 0 374 374;" xml:space="preserve">
<g>
	<path style="fill:#FEFEFE;" d="M0.845,368.567C0.959,245.402,0.939,122.236,0.939-0.93C-0.626-0.1,0.238,1.342,0.237,2.436
		C0.188,125.108,0.202,247.78,0.121,370.451c-0.002,2.805,0.632,3.439,3.436,3.436c104.343-0.083,208.687-0.07,313.03-0.07
		c18.45,0,36.9,0.016,55.35-0.046c0.971-0.003,2.319,0.845,2.992-0.702c-123.163,0-246.326-0.02-369.489,0.094
		C1.696,373.166,0.842,372.313,0.845,368.567z"/>
	<path style="fill:#F1A850;" d="M124.444,234.178c-12.953-19.935-25.927-39.857-38.852-59.81
		c-9.543-14.731-19.026-29.502-28.53-44.258c-4.73-7.343-4.117-12.862,1.855-16.844c7.22-4.813,14.24-3.522,18.985,3.778
		c13.026,20.04,25.949,40.146,38.903,60.233c7.353,11.402,14.684,22.817,22.025,34.226c0,0,0,0,0,0
		c2.924-4.766,4.389-7.178,5.188-8.504c0.202-0.335,1.197-1.664,2.036-3.363c-0.023,0.042-0.049,0.088-0.049,0.088
		c0.001,0.001,0.086-0.145,0.153-0.259c0.127-0.215,0.188-0.311,0.37-0.607c0.131-0.213,0.108-0.178,0.325-0.533
		c0.62-1.015,0.595-0.956,0.644-1.056c0.002-0.004,0.131-0.214,0.133-0.218c0.225-0.369,0.222-0.364,0.225-0.368
		c0.034-0.055,0.063-0.102,0.097-0.159c0.007-0.011,0.025-0.043,0.051-0.086c0.014-0.023,0.026-0.042,0.034-0.055
		c0.008-0.013,0.015-0.024,0.019-0.031c0.004-0.007,0.007-0.012,0.006-0.019c-0.001-0.006-0.005-0.009-0.012-0.016
		c-0.006-0.007-0.011-0.014-0.017-0.021c-0.014-0.017-0.023-0.033-0.029-0.042c-0.019-0.031-0.055-0.077-0.08-0.11
		c-0.02-0.026-0.027-0.036-0.148-0.206c-0.203-0.283-0.304-0.425-0.365-0.518c-0.049-0.075-0.108-0.168-0.18-0.286
		c-0.03-0.05-0.069-0.111-0.12-0.191c-0.011-0.017-0.032-0.05-0.061-0.096c-0.055-0.088-0.104-0.17-0.501-0.808
		c-0.536-0.861-0.941-1.488-0.968-1.529c-1.082-1.692-30.039-46.572-54.195-83.728c-10.578-16.271-29.757-18.853-44.415-6.18
		c-10.286,8.892-11.815,22.821-3.682,35.474c15.148,23.567,30.395,47.071,45.617,70.591c10.348,15.99,20.724,31.962,31.086,47.939
		c0,0,0.001,0.001,0.001,0.001C119.182,248.675,119.933,241.053,124.444,234.178z"/>
	<path style="fill:#EFAA54;" d="M236.743,97.32c-0.126-0.054-0.252-0.109-0.377-0.163C236.497,97.244,236.622,97.293,236.743,97.32z
		"/>
	<path style="fill:#F1A850;" d="M201.435,111.629c-0.898,1.37-1.796,2.739-2.693,4.109h0
		C199.64,114.368,200.538,112.998,201.435,111.629z"/>
	<path style="fill:#F1A850;" d="M178.248,148.304c-0.896,1.36-1.792,2.72-2.687,4.079h0
		C176.457,151.023,177.352,149.664,178.248,148.304z"/>
	<path style="fill:#F1A850;" d="M169.258,162.511c-0.892,1.358-1.785,2.716-2.677,4.074"/>
	<path style="fill:#F1A850;" d="M164.035,170.749c-0.891,1.356-1.781,2.713-2.672,4.068c0,0,0,0,0,0
		c0.017-0.026,0.901-1.373,0.919-1.399C162.345,173.322,163.972,170.845,164.035,170.749z"/>
	<path style="fill:#F1A850;" d="M160.269,176.724c-0.891,1.356-1.781,2.711-2.672,4.066l0,0
		C158.488,179.435,159.379,178.079,160.269,176.724z"/>
	<path style="fill:#A6E3F1;" d="M332.246,231.516c-15.664-23.304-28.661-42.949-38.603-58.087
		c-17.868-27.208-26.671-40.884-28.186-43.473c-0.958-1.637-6.104-10.394-11.453-18.095c0,0-3.518-5.06-7.783-9.2
		c-0.796-0.773-1.636-1.453-1.636-1.453c-0.6-0.486-1.125-0.863-1.507-1.125c-0.193-0.149-0.395-0.299-0.604-0.449
		c-0.411-0.294-0.814-0.558-1.204-0.797c-0.341-0.201-0.683-0.402-1.025-0.603c-0.448-0.274-0.847-0.485-1.165-0.643
		c-0.699-0.346-1.269-0.56-1.867-0.782c0,0-0.62-0.231-1.229-0.426c-3.403-1.09-6.605-1.434-6.605-1.434
		c-1.791-0.193-4.889-0.5-8.742,0.323c-1.36,0.291-3.366,0.735-5.656,2.02c-1.322,0.742-2.236,1.482-3.222,2.288
		c-1.212,0.99-2.757,2.396-4.37,4.296c0,0-0.001,0.001-0.001,0.001c-3.779,4.677-5.289,6.741-5.953,7.751
		c-0.028,0.043-0.321,0.499-1.641,2.504c-0.002,0.004-1.049,1.601-1.052,1.605c0,0,0,0-0.001,0c-2.103,3.4-4.206,6.799-6.309,10.199
		c0,0,0,0,0,0c-0.317,0.472-0.633,0.946-0.95,1.42c-0.576,0.863-1.148,1.725-1.715,2.585v0c0,0,0,0-0.001,0
		c-0.357,0.627-0.715,1.255-1.072,1.882c-0.334,0.526-0.673,1.055-1.016,1.587c-0.338,0.523-0.676,1.042-1.013,1.555
		c-0.709,1.075-1.417,2.15-2.126,3.225c0,0-0.001,0-0.001,0.001c-0.356,0.622-0.712,1.245-1.068,1.867c0,0,0,0.001-0.001,0.001
		c-0.406,0.641-0.818,1.284-1.234,1.929c-0.274,0.424-0.547,0.845-0.821,1.264c-0.255,0.385-0.906,1.369-1.16,1.754
		c-0.176,0.266-0.767,1.159-0.943,1.425c0,0-0.001,0-0.001,0.001c-0.398,0.614-0.796,1.23-1.194,1.846
		c-3.941,6.109-7.785,12.213-11.535,18.309c0,0,0,0,0,0c-0.848,1.388-1.697,2.775-2.545,4.163c-0.075,0.114-1.741,2.651-1.816,2.765
		c-0.017,0.025-0.839,1.278-0.856,1.303c0,0,0,0,0,0c0,0,0,0-0.001,0c-0.365,0.635-0.729,1.271-1.094,1.906
		c-0.091,0.139-1.612,2.453-1.704,2.593c-0.03,0.045-0.938,1.428-0.968,1.473c0,0,0,0-0.001,0c-0.846,1.394-1.695,2.79-2.548,4.188
		c-2.074,3.397-4.15,6.771-6.228,10.122c0,0,0,0,0.001,0c-1.655,2.71-3.31,5.424-4.965,8.141c-1.676,2.751-3.351,5.505-5.027,8.263
		c0,0,0,0,0,0c0,0,0,0,0,0c-4.573,7.699-9.27,15.32-14.386,22.674c-4.511,6.875-5.261,14.497-4.45,22.431
		c0,0-0.001-0.001-0.001-0.001c0.001,0.001,0.001,0.003,0.002,0.004c0.217,0.445,0.463,0.879,0.646,1.338
		c4.518,11.341,13.035,17.829,24.942,19.275c2.343,0.284,7.209,0.709,12.734-1.293c0.179-0.065,0.493-0.186,0.881-0.348
		c2.868-1.195,5.95-3.106,9.49-6.772c0.265-0.274,0.448-0.476,0.628-0.673c2.147-2.348,4.705-5.576,7.247-9.934
		c3.833-5.929,7.023-10.943,9.402-14.705c0,0,5.816-9.188,13.939-22.402c1.996-3.247,3.112-5.077,3.112-5.077
		c2.048-3.355,2.837-4.684,5.572-9.109c8.118-13.133,14.906-23.707,19.475-30.743c2.177,3.349,8.636,13.288,10.812,16.638
		c15.658,24.106,31.293,48.23,46.907,72.373c1.327,2.136,4.79,7.057,11.298,10.011c6.668,3.026,12.66,2.285,15.863,1.752
		c7.16-1.191,13.247-4.035,17.67-8.782c1.07-1.148,4.582-5.179,6.282-11.474C340.258,244.234,333.609,233.602,332.246,231.516z
		 M316.985,258.632c-6.811,4.711-14.072,3.94-18.303-2.579c-20.642-31.804-41.11-63.721-61.64-95.598
		c4.798-7.512,9.597-15.025,14.395-22.537c-4.877,0.875-20.753,4.036-25.657,10.865c-1.385,1.93-7.918,12.619-8.646,13.779
		c-0.003,0.005,0.002-0.003-0.003,0.005c-0.591,1.017-1.148,1.777-1.402,2.133c-0.008,0.01-0.446,0.612-1.232,1.874
		c-2.114,3.392-4.228,6.784-6.342,10.176c-0.018,0.028,0.014-0.024-0.003,0.004c-0.943,1.678-1.751,2.88-2.051,3.329
		c-1.342,2.007-1.218,1.948-3.774,5.814c-0.75,1.134-1.23,1.85-2.068,3.148c-0.171,0.264-0.717,1.113-1.518,2.383
		c-1.12,1.777-1.586,2.553-2.224,3.575c-2.876,4.615-3.942,6.187-6.309,10.131c0,0,0,0.001,0,0.001c0,0,0,0,0,0
		c-0.897,1.367-1.794,2.733-2.69,4.098c-0.844,1.38-1.688,2.759-2.532,4.139c-0.001,0.001-0.001,0.002-0.002,0.003
		c-0.896,1.366-1.793,2.731-2.689,4.096c-0.359,0.626-0.718,1.252-1.077,1.879c0,0,0,0.001,0,0.001
		c-0.894,1.362-1.787,2.724-2.681,4.086c-0.847,1.39-1.693,2.78-2.54,4.17c-0.001,0.001-0.001,0.003-0.002,0.004
		c-0.891,1.35-1.782,2.698-2.673,4.047c-0.851,1.395-1.701,2.791-2.551,4.186c-0.001,0.002-0.002,0.003-0.003,0.005
		c-0.887,1.348-1.773,2.695-2.659,4.041c-2.109,3.39-4.219,6.78-6.328,10.17c-0.001,0.001-0.001,0.002-0.002,0.003
		c-0.886,1.345-1.771,2.689-2.656,4.033c-0.771,1.17-0.828,1.216-1.47,2.127c-0.685,0.972-1.027,1.458-1.156,1.615
		c-1.495,1.83-4.773,2.572-5.005,2.617c-1.199,0.23-2.16,0.182-3.643,0.107c-1.203-0.06-2.051-0.2-2.545-0.295
		c-1.164-0.223-1.929-0.494-2.164-0.579c-0.67-0.244-1.117-0.472-1.252-0.543c-0.489-0.255-0.887-0.516-1.191-0.735
		c-0.143-0.106-0.35-0.266-0.589-0.472c-0.441-0.381-0.724-0.692-1.346-1.384c-0.468-0.521-0.84-0.936-1.069-1.193
		c-0.145-0.213-0.29-0.427-0.435-0.64c-0.334-0.568-0.668-1.136-1.003-1.704c-1.925-3.609-0.497-6.716,1.433-9.767
		c12.839-20.299,25.665-40.606,38.505-60.904c13.106-20.718,26.713-41.142,39.129-62.265c2.585-4.398,9.153-8.937,15.428-7.903
		c5.334,0.879,8.705,5.896,10.178,8.484c3.503,5.752,7.005,11.505,10.508,17.257c11.506,17.721,23.024,35.434,34.514,53.164
		c11.089,17.111,22.158,34.236,33.219,51.365C323.564,249.251,322.823,254.594,316.985,258.632z"/>
	<path style="fill:#F1A850;" d="M241.2,121.254c0.086,1.328-0.132,2.323-0.327,2.949c-0.178,0.571-0.415,1.09-0.657,1.616
		c-0.406,0.881-0.769,1.523-0.894,1.742c-2.321,4.067-3.632,6.027-3.632,6.027c-1.808,2.702-5.321,8.092-9.99,15.211
		c0,0-0.005,0.006-0.004,0.008c0.013,0.015,0.805-1.016,1.553-1.113c0.412-0.053,1.007,0.153,1.828,1.246
		c0.86,1.189,1.72,2.4,2.579,3.631c1.86,2.665,3.627,5.301,5.306,7.9c0,0,0,0,0,0c4.798-7.512,9.597-15.025,14.395-22.537
		C247.971,132.374,244.585,126.814,241.2,121.254z"/>
	<path style="fill:#F1A850;" d="M175.997,227.608c-0.001,0.001-0.001,0.002-0.002,0.003c-0.891,1.35-1.782,2.698-2.673,4.047
		c0.018-0.027,0.911-1.379,0.929-1.406C174.314,230.155,175.933,227.705,175.997,227.608z"/>
	<path style="fill:#F1A850;" d="M170.77,235.845c-0.001,0.001-0.002,0.003-0.003,0.004c-0.887,1.348-1.773,2.695-2.659,4.041
		c0.023-0.035,0.823-1.251,0.846-1.285C169.058,238.447,170.666,236.003,170.77,235.845z"/>
	<path style="fill:#F1A850;" d="M161.779,250.061c-0.001,0.001-0.001,0.002-0.002,0.002c-0.886,1.345-1.771,2.689-2.656,4.033
		c0.023-0.034,0.852-1.293,0.874-1.328C160.09,252.627,161.685,250.204,161.779,250.061z"/>
	<path style="fill:#F1A850;" d="M217.133,162.564c-0.001,0.001-0.002,0.003-0.003,0.004c-0.878,1.336-1.756,2.671-2.633,4.006
		C215.376,165.237,216.255,163.9,217.133,162.564z"/>
	<line style="fill:#F1A850;" x1="208.155" y1="176.751" x2="208.153" y2="176.754"/>
	<path style="fill:#F1A850;" d="M202.938,184.969c-0.001,0.001-0.001,0.002-0.002,0.003c-0.892,1.359-1.784,2.716-2.676,4.074
		c0.031-0.047,0.886-1.349,0.917-1.396C201.29,187.476,202.824,185.142,202.938,184.969z"/>
	<path style="fill:#F1A850;" d="M199.178,190.969c-0.001,0.001-0.001,0.002-0.002,0.002c-0.887,1.345-1.773,2.688-2.659,4.032
		c0.023-0.035,0.834-1.264,0.857-1.299C197.475,193.553,199.077,191.123,199.178,190.969z"/>
	<path style="fill:#F1A850;" d="M187.518,209.234c0,0,0.502-0.764,0.921-1.404c0.922-1.405,1.769-2.694,1.769-2.694L187.518,209.234
		z"/>
	<path style="fill:#F1A850;" d="M184.986,213.374c0,0.001-0.001,0.001-0.001,0.002c-0.896,1.366-1.793,2.731-2.689,4.096
		c0.029-0.045,0.997-1.519,1.027-1.564C183.399,215.791,184.909,213.491,184.986,213.374z"/>
	<path style="fill:#F1A850;" d="M178.537,223.437c0.008-0.012,0.847-1.29,0.854-1.302c0.036-0.054,1.791-2.729,1.827-2.784
		C180.324,220.714,179.431,222.075,178.537,223.437z"/>
	<path style="fill:#A6E3F1;" d="M162.58,173.609"/>
	<path style="fill:#A6E3F1;" d="M182.83,141.313"/>
	<path style="fill:#A6E3F1;" d="M191.054,128.214"/>
	<path style="fill:#F1A850;" d="M382.571,154.143"/>
	<path style="fill:#F1A850;" d="M376.357,129.286"/>
	<path style="fill:#F1A850;" d="M-124.429,113.857"/>
	<path style="fill:#A6E3F1;" d="M539.857,218.429"/>
	<path style="fill:#E8A34E;" d="M245.054,101.321"/>
	<path style="fill:#A6E3F1;" d="M213.982,99.179"/>
	<path style="fill:#E8A34E;" d="M214.981,97.292"/>
	<path style="fill:#F1A850;" d="M376.571,143.214"/>
	<path style="fill:#A6E3F1;" d="M436.571,216.714"/>
	<path style="fill:#A6E3F1;" d="M408.286,241.143"/>
	<path style="fill:#A6E3F1;" d="M406.143,251.857"/>
	<path style="fill:#A6E3F1;" d="M413.429,258.286"/>
	<path style="fill:#A6E3F1;" d="M221.161,255.554"/>
	<path style="fill:#A6E3F1;" d="M379.464,275.964"/>
</g>
<path style="fill:#A6E3F1;" d="M153.766,259.021"/>
<path style="fill:#D99E53;" d="M138.071,256.022"/>
<path style="fill:#101D25;" d="M138.366,257.348"/>
<path style="fill:#E9A34E;" d="M137.482,255.446"/>
<path style="fill:#101D25;" d="M161.295,252.875"/>
<path style="fill:#A6E3F1;" d="M158.214,256.33"/>
<path style="fill:#F1A850;" d="M199.324,188.475"/>
<path style="fill:#101D25;" d="M207.319,178.772"/>
<path style="fill:#101D25;" d="M149.482,195.955"/>
<path style="fill:#F1A850;" d="M148.089,196.225"/>
<path style="fill:#F1A850;" d="M256.518,162.018"/>
<path style="fill:#F1A850;" d="M253.25,162.393"/>
</svg>
