<svg xmlns="http://www.w3.org/2000/svg" xmlns:xlink="http://www.w3.org/1999/xlink" width="24" height="24" viewBox="0 0 24 24"><defs><style>.a,.d{fill:#a7e4f2;}.a{stroke:#707070;}.b{clip-path:url(#a);}.c{fill:none;}</style><clipPath id="a"><rect class="a" width="24" height="24" transform="translate(31 583)"/></clipPath></defs><g class="b" transform="translate(-31 -583)"><g transform="translate(31 583)"><path class="c" d="M0,0H24V24H0Z"/><path class="d" d="M12,12A4,4,0,1,0,8,8,4,4,0,0,0,12,12Zm0-6a2,2,0,1,1-2,2A2.006,2.006,0,0,1,12,6Zm0,7c-2.67,0-8,1.34-8,4v2a1,1,0,0,0,1,1H19a1,1,0,0,0,1-1V17C20,14.34,14.67,13,12,13Zm6,5H6v-.99C6.2,16.29,9.3,15,12,15s5.8,1.29,6,2Z"/></g></g></svg>