<svg xmlns="http://www.w3.org/2000/svg" xmlns:xlink="http://www.w3.org/1999/xlink" width="24" height="24" viewBox="0 0 24 24"><defs><style>.a,.d{fill:#f7f6ee;}.a{stroke:#707070;}.b{clip-path:url(#a);}.c{fill:none;}</style><clipPath id="a"><rect class="a" width="24" height="24" transform="translate(31 584)"/></clipPath></defs><g class="b" transform="translate(-31 -584)"><g transform="translate(31 584)"><path class="c" d="M0,0H24V24H0Z"/><path class="d" d="M10.09,15.59,11.5,17l5-5-5-5L10.09,8.41,12.67,11H3v2h9.67ZM19,3H5A2,2,0,0,0,3,5V9H5V5H19V19H5V15H3v4a2,2,0,0,0,2,2H19a2.006,2.006,0,0,0,2-2V5A2.006,2.006,0,0,0,19,3Z"/></g></g></svg>