<?xml version="1.0" encoding="utf-8"?>
<!-- Generator: Adobe Illustrator 24.0.1, SVG Export Plug-In . SVG Version: 6.00 Build 0)  -->
<svg version="1.1" id="Camada_1" xmlns="http://www.w3.org/2000/svg" xmlns:xlink="http://www.w3.org/1999/xlink" x="0px" y="0px"
	 viewBox="0 0 374.5 374.51" style="enable-background:new 0 0 374.5 374.51;" xml:space="preserve">
<style type="text/css">
	.st0{fill:#2D4F6B;}
	.st1{fill:#FEFEFE;}
	.st2{fill:#A6E3F1;}
	.st3{fill:#F1A850;}
	.st4{fill:#F0C793;}
	.st5{fill:#EFC693;}
	.st6{fill:#2D4F6C;}
	.st7{fill:#EFA851;}
	.st8{fill:#32526D;}
</style>
<g>
	<path class="st0" d="M1.19-0.68c123.54,0,247.08,0.01,370.62-0.07c2.8,0,3.44,0.63,3.44,3.44c-0.08,123.54-0.07,247.09-0.07,370.63
		c-1.29,0.7-2.69,0.35-4.04,0.35c-121.91,0.02-243.82,0.02-365.73,0.01c-5.13,0-4.59,0.54-4.59-4.58
		C0.82,247.19,0.82,125.28,0.83,3.37C0.83,2.02,0.49,0.62,1.19-0.68z"/>
	<path class="st1" d="M1.19-0.68c0,123.16,0.02,246.31-0.09,369.47c0,3.76,0.86,4.62,4.62,4.62c123.15-0.11,246.31-0.09,369.46-0.09
		c-0.67,1.55-2.02,0.7-2.99,0.7c-18.45,0.06-36.9,0.05-55.35,0.05c-104.34,0-208.69-0.01-313.03,0.07c-2.8,0-3.44-0.63-3.44-3.44
		C0.45,248.03,0.44,125.36,0.49,2.69C0.49,1.6-0.38,0.15,1.19-0.68z"/>
	<path class="st2" d="M168.65,157.91c7.53-12.15,15.25-24.32,23.17-36.49c0.81-1.24,1.61-2.47,2.42-3.71
		c1.17-1.05,2.3-1.64,3.07-1.97c1.09-0.47,1.97-0.64,2.21-0.68c0.91-0.17,1.64-0.17,2.25-0.16c0.79,0.01,1.45,0.07,1.93,0.14
		c1.54,0.2,2.71,0.63,3.5,0.98c3.53,1.58,5.42,4.44,6.03,5.39c0.03,0.05,0.06,0.09,0.07,0.11c11.23,17.77,22.75,35.36,34.1,53.05
		c2.56,3.98,3.26,8.17,0.71,12.28c-2.69,4.33-6.81,6.46-11.98,6.13c-4.53-0.29-7.41-3.06-9.74-6.68
		c-7.13-11.1-14.3-22.16-21.46-33.23c-0.6-0.94-1.24-1.85-2.11-3.16c-0.86,1.24-1.63,2.25-2.32,3.33
		c-6.99,11.03-14,22.05-20.93,33.12c-2.72,4.35-6.36,7.12-11.64,6.6c-5.54-0.54-9.48-3.46-11.31-8.89
		c-0.92-3.21-2.35-6.43,0.07-9.61c2.13-3.44,4.19-6.93,6.48-10.27C165.2,162.29,165.43,158.8,168.65,157.91z"/>
	<path class="st3" d="M158.35,174.42c-0.58,0.84-1.53,2.44-1.92,4.67c-0.39,2.2-0.07,4,0.19,4.99
		c-11.16-17.23-22.41-34.39-33.42-51.71c-3.56-5.6-1.65-11.79,4.12-15.47c5.3-3.38,12.74-2.12,16.26,3.09
		c5.29,7.84,10.23,15.91,15.48,23.78c3.16,4.74,5.71,9.89,9.59,14.14c-0.65,1.15-1.29,2.3-1.94,3.45c-0.74,1.14-1.48,2.28-2.22,3.42
		c-2.28,0.01-3.13-1.79-4.12-3.33c-6.71-10.46-13.61-20.8-20.21-31.33c-0.99-1.58-2-3.15-3.15-4.62c-1.44-1.84-3.28-2.28-5.25-0.96
		c-1.99,1.34-1.7,3.16-0.57,4.91c2.35,3.66,4.69,7.33,7.07,10.97c6.11,9.37,12.14,18.79,18.26,28.15
		C157.67,170.36,158.76,172.15,158.35,174.42z"/>
	<path class="st4" d="M218.25,240.98c0,0.7,0.01,2.49,0.01,3.34c0,0.73,0.01,2.51,0.01,3.23c-0.33,0-0.65,0-0.98,0
		c-0.88,0-1.75,0-2.62,0c-0.39,0-0.79,0-1.18,0c0-0.76,0-1.53,0-2.29c-0.32,0.29-0.72,0.62-1.23,0.92
		c-4.33,2.53-13.02,1.2-16.26-4.92c-3.2-6.05-1.77-14.19,4.06-17.94c4.9-3.15,11.46-2.27,15.22,0.89c1.01,0.85,1.68,1.74,2.1,2.39
		c-0.37,0.37-0.75,0.75-1.12,1.12c-0.7,0.7-1.39,1.39-2.09,2.09c-0.34-0.59-0.98-1.52-2.06-2.36c-0.17-0.13-1.31-1-2.81-1.4
		c-2.4-0.65-5.49-0.11-7.33,1.73c-3.3,3.32-3.42,9.49-0.25,12.99c0.39,0.43,1.69,1.79,3.83,2.31c0.26,0.06,3.9,0.88,6.62-1.56
		c1.04-0.93,1.56-2,1.81-2.64c0-0.31,0-0.63,0-0.94c-0.93,0-1.86,0-2.78,0c-0.79,0-1.57,0-2.36,0c0-0.68,0-1.35,0-2.03
		c0-0.59,0-1.18,0-1.77c0.86,0,1.71,0,2.57,0c2.28,0,4.57,0,6.85,0.01C218.25,236.43,218.25,238.7,218.25,240.98z"/>
	<path class="st4" d="M291.85,247.84c-1.9-0.15-4.82-0.6-8.18-2.11c-0.64-0.31-1.29-0.62-1.93-0.92c0.35-0.72,0.69-1.45,1.03-2.18
		c0.28-0.6,0.56-1.19,0.83-1.78c0.46,0.23,1.15,0.55,2.02,0.91c1.38,0.56,2.87,1.16,4.84,1.43c0.91,0.13,1.77,0.12,1.77,0.12
		c0.26,0,0.48-0.01,0.63-0.02c0.12,0.01,2.09,0.2,3.05-1.04c0.36-0.46,0.49-1.03,0.5-1.05c0,0,0.17-0.74-0.07-1.48
		c-0.33-0.99-1.37-1.74-2.65-1.92c-2.24-0.74-4.48-1.48-6.72-2.21c-0.61-0.18-2.7-0.87-3.86-2.93c-0.62-1.1-0.7-2.13-0.75-2.76
		c-0.18-2.49,0.88-4.45,1.46-5.35c0.51-0.58,1.35-1.38,2.56-2.05c1.57-0.86,2.96-1.03,4.1-1.15c1.23-0.14,4.6-0.46,8.04,1.42
		c0.96,0.53,1.69,1.09,2.16,1.5c-0.29,0.53-0.58,1.05-0.87,1.58c-0.36,0.63-0.71,1.26-1.07,1.89c-0.5-0.36-1.11-0.74-1.85-1.07
		c-1.73-0.78-3.33-0.92-4.38-0.92c-0.41-0.03-1-0.05-1.72,0.04c-0.17,0.02-0.33,0.04-0.52,0.08c-0.59,0.12-1.46,0.3-2.04,1.02
		c-0.4,0.49-0.49,1.03-0.53,1.27c-0.04,0.24-0.13,0.88,0.2,1.56c0.38,0.79,1.16,1.15,1.62,1.35c2.55,1.11,6.79,2.39,7.21,2.51
		c0.46,0.11,3.27,0.82,4.62,3.47c0.99,1.95,0.64,3.88,0.54,4.54c-0.2,1.32-0.74,2.28-1.05,2.78c-0.14,0.23-1,1.6-2.51,2.55
		C296.31,248.15,294.2,248.02,291.85,247.84z"/>
	<path class="st4" d="M113.37,247.29c3.05-8.05,6.09-16.09,9.14-24.14c0.23-0.6,0.45-1.2,0.68-1.8c0.47,0,2.04,0,2.52-0.01
		c0.34,0,1.76,0,2.1-0.01c0.28,0.73,0.56,1.45,0.84,2.18c3.06,7.95,5.98,15.87,8.76,23.75c-1.66,0-3.31,0-4.97,0
		c-0.42-1.1-0.84-2.23-1.26-3.37c-0.4-1.09-0.78-2.17-1.15-3.24c-3.02,0-6.04,0-9.05-0.01c-0.4,1.16-0.8,2.32-1.21,3.48
		c-0.4,1.06-0.79,2.12-1.19,3.17C116.83,247.29,115.1,247.29,113.37,247.29z"/>
	<path class="st5" d="M84.81,221.38c3.38,0.01,4.39-0.02,8.94-0.02c0.93,0,1.67,0,2.12,0c0,0.76-0.01,1.51-0.01,2.27
		c0,0.85,0.01,1.7,0.01,2.55c-0.7,0-1.39,0-2.09,0c-2.14,0-4.29,0-6.43-0.01c0,1.34-0.01,5.66-0.01,7c0,3.37-0.01,8.6-0.01,11.97
		c0,0.86,0,1.72,0,2.58c-0.82,0-1.64-0.01-2.45-0.01c-0.88,0-1.76,0.01-2.64,0.01c0-0.88,0-1.76,0-2.64
		c0.06-5.03,0.09-10.09,0.1-15.17c0-1.23,0-2.46,0-3.68c-1.39,0.03-2.81,0.04-4.23,0.05c-1.39,0.01-2.76,0.01-4.13,0
		c0-0.51,0.01-1.03,0.01-1.54c0-1.14,0-2.28-0.01-3.41c0.52,0,1.3,0.01,2.26,0.01C78.11,221.35,79.1,221.35,84.81,221.38z"/>
	<path class="st4" d="M162.65,232.45c-0.01,2.87-0.01,5.73-0.02,8.59c0,0.71,0,1.43,0,2.14c0.73,0,1.46,0.01,2.19,0.01
		c2.99-0.01,5.97-0.03,8.96-0.04c0.77,0,1.55,0,2.32-0.01c0,0.81,0,1.62,0,2.43c0,0.7,0,1.4,0,2.11c-0.75,0-1.51,0-2.26,0
		c-4.73,0-9.46,0-14.19,0.01c-0.73,0-1.46,0-2.19,0c0-0.32,0-1.82,0-2.13c0.01-7.35,0.01-14.7-0.01-22.04c0-0.72,0-1.44,0-2.15
		c0.85,0,1.71,0,2.56,0c0.88,0,1.76,0,2.64,0c0,0.71,0,1.42,0,2.13C162.66,226.47,162.65,229.46,162.65,232.45z"/>
	<path class="st6" d="M165.91,185.79c-0.54-0.3-1.85-1.07-2.59-2.7c-0.92-2.03-0.27-3.94-0.09-4.43c0.23-0.63,0.52-1.12,0.75-1.45
		c3.82-5.28,7.65-10.74,11.46-16.39c3.6-5.33,10.16-15.01,22.12-35.25c0.76-1.29,2.5-4.25,4.94-4.29c1.56-0.03,2.96,1.42,3.65,2.11
		c1.26,1.26,1.88,2.61,2.18,3.44c-2.67,4.65-4.8,8.48-6.33,10.92c-9.51,15.19-19.01,30.38-28.52,45.56
		c-0.14,0.22-0.34,0.52-0.61,0.86c-0.62,0.79-1.45,1.85-2.57,2.3C168.47,187.23,166.5,186.12,165.91,185.79z"/>
	<path class="st6" d="M212.52,133.25c9.77,15.01,19.57,30,29.27,45.05c1.91,2.96,1.26,5.27-1.51,7.01c-2.88,1.81-5.7,1.26-7.7-1.81
		c-6.86-10.53-13.64-21.11-20.43-31.68c-1.88-2.93-3.67-5.91-5.5-8.87c0.91-1.58,1.85-3.18,2.83-4.8
		C210.49,136.49,211.5,134.85,212.52,133.25z"/>
	<path class="st6" d="M158.35,174.42c-9.54-14.69-19.09-29.37-28.6-44.08c-2.22-3.43-1.91-5.49,0.85-7.36
		c2.9-1.96,5.97-1.41,8.01,1.73c8.67,13.33,17.26,26.71,25.89,40.07c-0.96,1.5-1.91,3-2.87,4.51
		C160.53,171,159.44,172.71,158.35,174.42z"/>
	<path class="st7" d="M212.52,133.25c-1.96,3.24-3.91,6.47-5.87,9.71c-1.12-1.67-2.24-3.33-3.36-5c-0.14-0.27-0.41-0.45-0.72-0.46
		c-0.42-0.01-0.69,0.44-0.73,0.42c-0.07-0.05,0.88-1.72,4.14-7.03c0,0,1.01-1.79,1.38-2.39c0.02-0.03,0.12-0.2,0.26-0.43
		c0.1-0.17,0.14-0.25,0.19-0.35c0.12-0.24,0.23-0.44,0.28-0.71c0.03-0.14,0.05-0.34,0.01-0.6c-0.08-0.21-0.16-0.43-0.24-0.64
		c0.81,1.37,1.66,2.76,2.53,4.17C211.11,131.06,211.81,132.16,212.52,133.25z"/>
	<path class="st8" d="M125.52,227.25c0.95,2.7,1.9,5.4,2.85,8.09c0.23,0.62,0.46,1.23,0.69,1.85c-0.29,0-0.58,0.01-0.87,0.01
		c-1.84,0-3.67-0.01-5.51-0.01c-0.29,0-0.58,0-0.87,0c0.21-0.53,0.41-1.06,0.62-1.59C123.46,232.81,124.49,230.03,125.52,227.25z"/>
	<path class="st4" d="M261.75,241.36c0,0.7,0.01,2.49,0.01,3.34c0,0.73,0.01,2.51,0.01,3.23c-0.33,0-0.65,0-0.98,0
		c-0.88,0-1.75,0-2.62,0c-0.39,0-0.79,0-1.18,0c0-0.76,0-1.53,0-2.29c-0.32,0.29-0.72,0.62-1.23,0.92
		c-4.33,2.53-13.02,1.2-16.26-4.92c-3.2-6.05-1.77-14.19,4.06-17.94c4.9-3.15,11.46-2.27,15.22,0.89c1.01,0.85,1.68,1.74,2.1,2.39
		c-0.37,0.37-0.75,0.75-1.12,1.12c-0.7,0.7-1.39,1.39-2.09,2.09c-0.34-0.59-0.98-1.52-2.06-2.36c-0.17-0.13-1.31-1-2.81-1.4
		c-2.4-0.65-5.49-0.11-7.33,1.73c-3.3,3.32-3.42,9.49-0.25,12.99c0.39,0.43,1.69,1.79,3.83,2.31c0.26,0.06,3.9,0.88,6.62-1.56
		c1.04-0.93,1.56-2,1.81-2.64c0-0.31,0-0.63,0-0.94c-0.93,0-1.86,0-2.78,0c-0.79,0-1.57,0-2.36,0c0-0.68,0-1.35,0-2.03
		c0-0.59,0-1.18,0-1.77c0.86,0,1.71,0,2.57,0c2.28,0,4.57,0,6.85,0.01C261.75,236.81,261.75,239.09,261.75,241.36z"/>
	<path class="st4" d="M318.16,246.08"/>
	<path class="st6" d="M211.89,140.86"/>
</g>
<path class="st4" d="M175.11,244.61"/>
<path class="st4" d="M132.86,248.17"/>
<path class="st4" d="M137.73,241.64"/>
</svg>
